name C:\Users\u0101727\Documents\MyRepositories\upper-imu-dc\Results\main_mocap_tracking\Case_13\FLX01_angularVelocities_bodyFrame.mot
datacolumns 4
datarows 100
range 1.510000 2.500000
endheader 
time	radius_imu_x	radius_imu_y	radius_imu_z	
          1.51000000	         -1.34477742	          1.55108647	          0.28393614	
          1.52000000	         -1.30617947	          1.39115119	          0.22244209	
          1.53000000	         -1.28274493	          1.18507653	          0.16273058	
          1.54000000	         -1.25540807	          0.99256931	          0.10687564	
          1.55000000	         -1.22704964	          0.79553408	          0.05708789	
          1.56000000	         -1.19880672	          0.60914443	          0.01319788	
          1.57000000	         -1.17326182	          0.44031100	         -0.02483597	
          1.58000000	         -1.15190092	          0.30237656	         -0.05754773	
          1.59000000	         -1.13546033	          0.20424378	         -0.08536107	
          1.60000000	         -1.12240929	          0.14827659	         -0.10814038	
          1.61000000	         -1.11307297	          0.13028430	         -0.12665780	
          1.62000000	         -1.10661446	          0.14139094	         -0.14150358	
          1.63000000	         -1.10307030	          0.15995914	         -0.15314249	
          1.64000000	         -1.09831223	          0.17372392	         -0.16049633	
          1.65000000	         -1.09219168	          0.16413358	         -0.16501347	
          1.66000000	         -1.08419099	          0.13013511	         -0.16640803	
          1.67000000	         -1.07591489	          0.08395413	         -0.16587175	
          1.68000000	         -1.06946751	          0.05135489	         -0.16535419	
          1.69000000	         -1.06636668	          0.05178875	         -0.16663006	
          1.70000000	         -1.06726405	          0.09063159	         -0.17111783	
          1.71000000	         -1.07169618	          0.15887956	         -0.17961918	
          1.72000000	         -1.07855824	          0.24222520	         -0.19246705	
          1.73000000	         -1.08671969	          0.33061167	         -0.20969651	
          1.74000000	         -1.09549500	          0.42493885	         -0.23136937	
          1.75000000	         -1.10468107	          0.53582023	         -0.25773973	
          1.76000000	         -1.11416902	          0.67432884	         -0.28911280	
          1.77000000	         -1.12344622	          0.84131538	         -0.32553708	
          1.78000000	         -1.13139479	          1.02320560	         -0.36657351	
          1.79000000	         -1.13652964	          1.19642697	         -0.41128616	
          1.80000000	         -1.13748257	          1.33641577	         -0.45842644	
          1.81000000	         -1.13342418	          1.42575301	         -0.50667840	
          1.82000000	         -1.12419986	          1.45752780	         -0.55482970	
          1.83000000	         -1.11016700	          1.43321170	         -0.60181361	
          1.84000000	         -1.09195809	          1.35866005	         -0.64668492	
          1.85000000	         -1.07040418	          1.24265287	         -0.68863339	
          1.86000000	         -1.04658958	          1.09793494	         -0.72705516	
          1.87000000	         -1.02182056	          0.94115999	         -0.76160883	
          1.88000000	         -0.99739125	          0.78954893	         -0.79218502	
          1.89000000	         -0.97425773	          0.65568801	         -0.81879497	
          1.90000000	         -0.95285428	          0.54423350	         -0.84145476	
          1.91000000	         -0.93317622	          0.45297387	         -0.86013998	
          1.92000000	         -0.91500250	          0.37628743	         -0.87481048	
          1.93000000	         -0.89805124	          0.30715536	         -0.88544292	
          1.94000000	         -0.88205395	          0.23733156	         -0.89204203	
          1.95000000	         -0.86690598	          0.15905446	         -0.89467596	
          1.96000000	         -0.85294683	          0.07029984	         -0.89358308	
          1.97000000	         -0.84116188	         -0.01961492	         -0.88930873	
          1.98000000	         -0.83302987	         -0.08954494	         -0.88275709	
          1.99000000	         -0.82997237	         -0.11324715	         -0.87507315	
          2.00000000	         -0.83265591	         -0.07031205	         -0.86737416	
          2.01000000	         -0.84052468	          0.04462585	         -0.86044588	
          2.02000000	         -0.85180850	          0.21895777	         -0.85454285	
          2.03000000	         -0.86396212	          0.42546281	         -0.84936832	
          2.04000000	         -0.87432769	          0.62949641	         -0.84422265	
          2.05000000	         -0.88081597	          0.79811009	         -0.83826236	
          2.06000000	         -0.88240259	          0.90874741	         -0.83078064	
          2.07000000	         -0.87925590	          0.95406852	         -0.82140265	
          2.08000000	         -0.87244723	          0.94061862	         -0.81012478	
          2.09000000	         -0.86337427	          0.88193052	         -0.79720472	
          2.10000000	         -0.85317549	          0.78983242	         -0.78298413	
          2.11000000	         -0.84246263	          0.66976037	         -0.76776414	
          2.12000000	         -0.83153071	          0.52374388	         -0.75182345	
          2.13000000	         -0.82086233	          0.35859872	         -0.73557306	
          2.14000000	         -0.81153401	          0.19273168	         -0.71975042	
          2.15000000	         -0.80522827	          0.05659970	         -0.70553082	
          2.16000000	         -0.80379909	         -0.01397815	         -0.69446641	
          2.17000000	         -0.80854897	          0.01063334	         -0.68822407	
          2.18000000	         -0.81952895	          0.14200268	         -0.68818078	
          2.19000000	         -0.83522966	          0.36730295	         -0.69502969	
          2.20000000	         -0.85286721	          0.65230882	         -0.70857677	
          2.21000000	         -0.86911760	          0.95174590	         -0.72780901	
          2.22000000	         -0.88091911	          1.22099620	         -0.75116093	
          2.23000000	         -0.88602744	          1.42435683	         -0.77683136	
          2.24000000	         -0.88322622	          1.53862923	         -0.80304015	
          2.25000000	         -0.87226884	          1.55317360	         -0.82819115	
          2.26000000	         -0.85368796	          1.46807810	         -0.85095877	
          2.27000000	         -0.82858001	          1.29166387	         -0.87032590	
          2.28000000	         -0.79841430	          1.03803301	         -0.88559220	
          2.29000000	         -0.76488014	          0.72506472	         -0.89636679	
          2.30000000	         -0.72978169	          0.37317658	         -0.90255925	
          2.31000000	         -0.69498926	          0.00505789	         -0.90437667	
          2.32000000	         -0.66243019	         -0.35382212	         -0.90232366	
          2.33000000	         -0.63406111	         -0.67466989	         -0.89719416	
          2.34000000	         -0.61174186	         -0.92588847	         -0.89004128	
          2.35000000	         -0.59695773	         -1.07579471	         -0.88210871	
          2.36000000	         -0.59041510	         -1.09818643	         -0.87469849	
          2.37000000	         -0.59163422	         -0.98014654	         -0.86895720	
          2.38000000	         -0.59873901	         -0.72929385	         -0.86561532	
          2.39000000	         -0.60864326	         -0.37596498	         -0.86478430	
          2.40000000	         -0.61766920	          0.03230888	         -0.86590652	
          2.41000000	         -0.62236883	          0.44167257	         -0.86787582	
          2.42000000	         -0.62021891	          0.80349334	         -0.86932658	
          2.43000000	         -0.60998881	          1.08290636	         -0.86900334	
          2.44000000	         -0.59173691	          1.26156216	         -0.86595005	
          2.45000000	         -0.56661676	          1.33668595	         -0.85960913	
          2.46000000	         -0.53652599	          1.31820821	         -0.84984399	
          2.47000000	         -0.50389428	          1.22470841	         -0.83698698	
          2.48000000	         -0.47130013	          1.07853450	         -0.82164224	
          2.49000000	         -0.44125898	          0.90628587	         -0.80492938	
          2.50000000	         -0.43063138	          0.72022407	         -0.79549392	
